<svg id="visual" viewBox="0 0 1920 1080" width="1920" height="1080" xmlns="http://www.w3.org/2000/svg" xmlns:xlink="http://www.w3.org/1999/xlink" version="1.1"><rect x="0" y="0" width="1920" height="1080" fill="#f5faff"></rect><path d="M0 853L240 853L480 784L720 827L960 789L1200 821L1440 832L1680 780L1920 807L1920 1081L1680 1081L1440 1081L1200 1081L960 1081L720 1081L480 1081L240 1081L0 1081Z" fill="#3078e3"></path><path d="M0 904L240 847L480 899L720 834L960 897L1200 827L1440 851L1680 871L1920 865L1920 1081L1680 1081L1440 1081L1200 1081L960 1081L720 1081L480 1081L240 1081L0 1081Z" fill="#6285ea"></path><path d="M0 971L240 871L480 940L720 921L960 893L1200 892L1440 955L1680 913L1920 892L1920 1081L1680 1081L1440 1081L1200 1081L960 1081L720 1081L480 1081L240 1081L0 1081Z" fill="#8492f1"></path><path d="M0 970L240 987L480 957L720 979L960 1002L1200 935L1440 933L1680 978L1920 927L1920 1081L1680 1081L1440 1081L1200 1081L960 1081L720 1081L480 1081L240 1081L0 1081Z" fill="#a1a0f8"></path><path d="M0 981L240 983L480 1024L720 1000L960 981L1200 997L1440 1005L1680 979L1920 1004L1920 1081L1680 1081L1440 1081L1200 1081L960 1081L720 1081L480 1081L240 1081L0 1081Z" fill="#baafff"></path></svg>