<svg id="visual" viewBox="0 0 1920 1080" width="1920" height="1080" xmlns="http://www.w3.org/2000/svg" xmlns:xlink="http://www.w3.org/1999/xlink" version="1.1"><path d="M1268 1080L1326 864L1376 648L1399 432L1463 216L1331 0L1920 0L1920 216L1920 432L1920 648L1920 864L1920 1080Z" fill="#3078e3"></path><path d="M1404 1080L1492 864L1488 648L1478 432L1429 216L1485 0L1920 0L1920 216L1920 432L1920 648L1920 864L1920 1080Z" fill="#5a82e9"></path><path d="M1560 1080L1605 864L1503 648L1568 432L1542 216L1532 0L1920 0L1920 216L1920 432L1920 648L1920 864L1920 1080Z" fill="#778dee"></path><path d="M1600 1080L1661 864L1607 648L1580 432L1618 216L1564 0L1920 0L1920 216L1920 432L1920 648L1920 864L1920 1080Z" fill="#9098f4"></path><path d="M1679 1080L1736 864L1743 648L1761 432L1730 216L1694 0L1920 0L1920 216L1920 432L1920 648L1920 864L1920 1080Z" fill="#a6a3f9"></path><path d="M1790 1080L1832 864L1841 648L1757 432L1756 216L1769 0L1920 0L1920 216L1920 432L1920 648L1920 864L1920 1080Z" fill="#baafff"></path></svg>