<svg id="visual" viewBox="0 0 1920 1080" width="1920" height="1080" xmlns="http://www.w3.org/2000/svg" xmlns:xlink="http://www.w3.org/1999/xlink" version="1.1"><rect x="0" y="0" width="1920" height="1080" fill="#2868C5"></rect><path d="M0 876L240 849L480 772L720 845L960 836L1200 842L1440 803L1680 803L1920 884L1920 1081L1680 1081L1440 1081L1200 1081L960 1081L720 1081L480 1081L240 1081L0 1081Z" fill="#2868c5"></path><path d="M0 904L240 930L480 816L720 858L960 834L1200 896L1440 839L1680 856L1920 886L1920 1081L1680 1081L1440 1081L1200 1081L960 1081L720 1081L480 1081L240 1081L0 1081Z" fill="#2c57b5"></path><path d="M0 892L240 958L480 917L720 903L960 915L1200 878L1440 952L1680 939L1920 923L1920 1081L1680 1081L1440 1081L1200 1081L960 1081L720 1081L480 1081L240 1081L0 1081Z" fill="#2f47a4"></path><path d="M0 960L240 998L480 934L720 956L960 973L1200 966L1440 960L1680 986L1920 927L1920 1081L1680 1081L1440 1081L1200 1081L960 1081L720 1081L480 1081L240 1081L0 1081Z" fill="#313793"></path><path d="M0 1007L240 983L480 986L720 1002L960 1005L1200 1030L1440 1001L1680 1025L1920 990L1920 1081L1680 1081L1440 1081L1200 1081L960 1081L720 1081L480 1081L240 1081L0 1081Z" fill="#322681"></path></svg>