<svg id="visual" viewBox="0 0 1920 1080" width="1920" height="1080" xmlns="http://www.w3.org/2000/svg" xmlns:xlink="http://www.w3.org/1999/xlink" version="1.1"><rect x="0" y="0" width="1920" height="1080" fill="#BAAFFF"></rect><path d="M0 764L240 898L480 850L720 805L960 901L1200 822L1440 887L1680 818L1920 788L1920 1081L1680 1081L1440 1081L1200 1081L960 1081L720 1081L480 1081L240 1081L0 1081Z" fill="#79a1ee"></path><path d="M0 921L240 877L480 872L720 840L960 860L1200 939L1440 865L1680 865L1920 916L1920 1081L1680 1081L1440 1081L1200 1081L960 1081L720 1081L480 1081L240 1081L0 1081Z" fill="#598ce9"></path><path d="M0 952L240 879L480 890L720 928L960 873L1200 960L1440 966L1680 919L1920 957L1920 1081L1680 1081L1440 1081L1200 1081L960 1081L720 1081L480 1081L240 1081L0 1081Z" fill="#3078e3"></path><path d="M0 957L240 982L480 1002L720 957L960 940L1200 931L1440 931L1680 988L1920 994L1920 1081L1680 1081L1440 1081L1200 1081L960 1081L720 1081L480 1081L240 1081L0 1081Z" fill="#2868c5"></path><path d="M0 979L240 1009L480 1014L720 1008L960 1020L1200 980L1440 1026L1680 1008L1920 997L1920 1081L1680 1081L1440 1081L1200 1081L960 1081L720 1081L480 1081L240 1081L0 1081Z" fill="#2158a8"></path></svg>